<?xml version="1.0" encoding="UTF-8"?>
<svg id="Layer_2" data-name="Layer 2" xmlns="http://www.w3.org/2000/svg" xmlns:xlink="http://www.w3.org/1999/xlink" viewBox="0 0 631.62 128.71">
  <defs>
    <style>
      .cls-1 {
        fill: url(#linear-gradient-2);
      }

      .cls-2 {
        fill: url(#linear-gradient);
      }

      .cls-3 {
        fill: #09c;
      }

      .cls-4 {
        fill: #009080;
      }
    </style>
    <linearGradient id="linear-gradient" x1="523.51" y1="31.68" x2="566.67" y2="67.89" gradientUnits="userSpaceOnUse">
      <stop offset=".05" stop-color="#4ec3e0"/>
      <stop offset=".17" stop-color="#43b2d1"/>
      <stop offset=".4" stop-color="#2887ac"/>
      <stop offset=".7" stop-color="#004976"/>
      <stop offset="1" stop-color="#001f32"/>
    </linearGradient>
    <linearGradient id="linear-gradient-2" x1="561.68" y1="61.16" x2="615.76" y2="92.39" gradientUnits="userSpaceOnUse">
      <stop offset="0" stop-color="#00a997"/>
      <stop offset=".26" stop-color="#38ba5e"/>
      <stop offset=".54" stop-color="#6bc92b"/>
      <stop offset=".74" stop-color="#8bd30b"/>
      <stop offset=".86" stop-color="#97d700"/>
    </linearGradient>
  </defs>
  <g id="Layer_1-2" data-name="Layer 1">
    <g>
      <g>
        <path d="M46.24,109.4c2.7,0,5.3-.24,7.79-.73,2.49-.49,4.97-1.16,7.46-2.03v18.01c-2.6,1.19-5.82,2.17-9.65,2.92-3.84.76-8.03,1.14-12.58,1.14-5.3,0-10.04-.87-14.2-2.6-4.17-1.73-7.46-4.71-9.9-8.92s-3.65-10.17-3.65-17.85v-42.67H0v-10.22l13.3-8.11,6.98-18.66h15.42v18.82h24.83v18.17h-24.83v42.67c0,3.35.97,5.87,2.92,7.55,1.95,1.68,4.49,2.51,7.63,2.51Z"/>
        <path d="M115.69,36.7c11.9,0,21.01,2.57,27.34,7.71,6.33,5.14,9.49,13.01,9.49,23.61v59.06h-16.88l-4.71-12.01h-.65c-3.79,4.76-7.79,8.22-12.01,10.38-4.22,2.16-10.01,3.25-17.36,3.25-7.9,0-14.44-2.27-19.63-6.81-5.19-4.54-7.79-11.63-7.79-21.26s3.3-16.33,9.9-20.77c6.6-4.43,16.5-6.92,29.69-7.46l15.42-.49v-3.89c0-4.65-1.22-8.06-3.65-10.22-2.43-2.16-5.82-3.25-10.14-3.25s-8.55.62-12.66,1.87c-4.11,1.25-8.22,2.79-12.33,4.62l-7.95-16.39c4.65-2.38,9.9-4.3,15.74-5.76,5.84-1.46,11.9-2.19,18.17-2.19ZM128.51,86.03l-9.41.32c-7.79.22-13.2,1.62-16.23,4.22-3.03,2.6-4.54,6-4.54,10.22,0,3.68,1.08,6.3,3.25,7.87,2.16,1.57,4.97,2.35,8.44,2.35,5.19,0,9.57-1.54,13.14-4.62,3.57-3.08,5.35-7.44,5.35-13.06v-7.3Z"/>
        <path d="M201.52,127.08h-24.18V3.77h24.18v123.32Z"/>
        <path d="M263.34,36.87c12.22,0,21.91,3.49,29.04,10.47,7.14,6.98,10.71,16.9,10.71,29.77v11.68h-57.12c.22,6.82,2.24,12.17,6.08,16.06,3.84,3.89,9.17,5.84,15.98,5.84,5.62,0,10.79-.57,15.5-1.7,4.71-1.14,9.55-2.89,14.52-5.27v18.66c-4.44,2.17-9.03,3.76-13.79,4.79-4.76,1.03-10.55,1.54-17.36,1.54-8.87,0-16.71-1.65-23.53-4.95-6.82-3.3-12.17-8.28-16.06-14.93-3.89-6.65-5.84-15.12-5.84-25.39s1.76-18.88,5.27-25.8c3.51-6.92,8.41-12.11,14.68-15.58,6.27-3.46,13.57-5.19,21.91-5.19ZM263.51,54.07c-4.76,0-8.66,1.52-11.68,4.54-3.03,3.03-4.81,7.73-5.35,14.12h33.91c-.11-5.3-1.54-9.74-4.3-13.31-2.76-3.57-6.95-5.35-12.58-5.35Z"/>
        <path d="M373.03,36.87c9.52,0,17.14,2.57,22.88,7.71,5.73,5.14,8.6,13.39,8.6,24.75v57.76h-24.18v-51.76c0-6.38-1.14-11.17-3.41-14.36-2.27-3.19-5.9-4.79-10.87-4.79-7.36,0-12.39,2.52-15.09,7.54-2.71,5.03-4.06,12.25-4.06,21.66v41.7h-24.18V38.49h18.5l3.25,11.36h1.3c2.81-4.54,6.68-7.84,11.6-9.9,4.92-2.05,10.14-3.08,15.66-3.08Z"/>
        <path d="M466.65,109.4c2.7,0,5.3-.24,7.79-.73,2.49-.49,4.97-1.16,7.46-2.03v18.01c-2.6,1.19-5.82,2.17-9.65,2.92-3.84.76-8.03,1.14-12.58,1.14-5.3,0-10.04-.87-14.2-2.6-4.17-1.73-7.46-4.71-9.9-8.92s-3.65-10.17-3.65-17.85v-42.67h-11.52v-10.22l13.3-8.11,6.98-18.66h15.42v18.82h24.83v18.17h-24.83v42.67c0,3.35.97,5.87,2.92,7.55,1.95,1.68,4.49,2.51,7.63,2.51Z"/>
      </g>
      <g>
        <g>
          <path class="cls-2" d="M552.01,45.53c-7.33.47-15.39-.99-20.43-2.17-2.19-.75-6.04-1.15-6.04-1.15-5.81-.73-10.85.96-15.31,5.42-7.67,7.67-7.67,20.1,0,27.76,2.34,2.34,5.13,3.96,8.1,4.87h0s.05.02.12.04c1.56.47,3.17.72,4.79.79,8.14.97,24.99,1.28,39.5-9.35,3.84-2.82,11.67-13.6,14.13-16.89,8.29-11.1,8.24-26.48,8.24-26.48,0,0-2.5,15.17-33.08,17.15Z"/>
          <path class="cls-3" d="M585.08,28.63c.08-3.18-.24-7.14-.51-9.79-.05-.97-.14-1.93-.33-2.89,0-.01,0-.03,0-.03h0c-.74-3.71-2.54-7.25-5.41-10.13-7.73-7.73-20.27-7.73-28,0-6.61,6.61-7.55,16.73-2.85,24.35h-.02s.05.07.12.18c.77,1.23,1.68,2.4,2.75,3.47.56.56,1.16,1.07,1.77,1.55,2.36,2.31,5.76,5.28,10.48,8.76,18.67-4.04,21.67-14.02,22.01-15.48Z"/>
          <path class="cls-1" d="M626.77,46.97c-3.36-3.79-7.88-5.92-12.56-6.37v-.13s-12.67-2.18-23.52,2.01c-6.54,2.53-16.7,10.35-21.23,14.91-5.95,6-8.24,7.97-13.01,13.91-5.45,6.79-9.05,15.4-10.06,21.6-1.06,6.48-1.12,11.68-1.12,11.68,0,0,15.37-24.27,38.88-26.59,8.73-.86,19-.01,24.27.56,1.1.23,2.22.37,3.35.4.1.01.16.02.16.02v-.02c4.69.11,9.43-1.47,13.21-4.82,7.95-7.06,8.68-19.22,1.63-27.18Z"/>
        </g>
        <path class="cls-4" d="M545.27,104.59c-.51,5.48,1.1,11.6,5.18,15.91,7.52,7.94,20.05,8.27,27.99.75,4.64-4.4,6.18-10.33,6.07-16.4-.05-5.41-.17-20.21-.18-26.86-.06,0-.12,0-.18.02-23.51,2.32-38.85,26.29-38.88,26.59Z"/>
      </g>
    </g>
  </g>
</svg>