<svg xmlns="http://www.w3.org/2000/svg" version="1.1" xmlns:xlink="http://www.w3.org/1999/xlink" width="127.15" height="126.68"><svg id="SvgjsSvg1075" data-name="Layer 2" xmlns="http://www.w3.org/2000/svg" xmlns:xlink="http://www.w3.org/1999/xlink" viewBox="0 0 127.15 126.68">
  <defs>
    <style>
      .cls-1 {
        fill: url(#linear-gradient-2);
      }

      .cls-2 {
        fill: url(#linear-gradient);
      }

      .cls-3 {
        fill: #09c;
      }

      .cls-4 {
        fill: #009080;
      }
    </style>
    <linearGradient id="SvgjsLinearGradient1074" x1="19.04" y1="31.68" x2="62.2" y2="67.89" gradientUnits="userSpaceOnUse">
      <stop offset=".05" stop-color="#4ec3e0"></stop>
      <stop offset=".17" stop-color="#43b2d1"></stop>
      <stop offset=".4" stop-color="#2887ac"></stop>
      <stop offset=".7" stop-color="#004976"></stop>
      <stop offset="1" stop-color="#001f32"></stop>
    </linearGradient>
    <linearGradient id="SvgjsLinearGradient1073" x1="57.2" y1="61.16" x2="111.29" y2="92.39" gradientUnits="userSpaceOnUse">
      <stop offset="0" stop-color="#00a997"></stop>
      <stop offset=".26" stop-color="#38ba5e"></stop>
      <stop offset=".54" stop-color="#6bc92b"></stop>
      <stop offset=".74" stop-color="#8bd30b"></stop>
      <stop offset=".86" stop-color="#97d700"></stop>
    </linearGradient>
  </defs>
  <g id="SvgjsG1072" data-name="Layer 1">
    <g>
      <g>
        <path class="cls-2" d="M47.54,45.53c-7.33.47-15.39-.99-20.43-2.17-2.19-.75-6.04-1.15-6.04-1.15-5.81-.73-10.85.96-15.31,5.42-7.67,7.67-7.67,20.1,0,27.76,2.34,2.34,5.13,3.96,8.1,4.87h0s.05.02.12.04c1.56.47,3.17.72,4.79.79,8.14.97,24.99,1.28,39.5-9.35,3.84-2.82,11.67-13.6,14.13-16.89,8.29-11.1,8.24-26.48,8.24-26.48,0,0-2.5,15.17-33.08,17.15Z"></path>
        <path class="cls-3" d="M80.61,28.63c.08-3.18-.24-7.14-.51-9.79-.05-.97-.14-1.93-.33-2.89,0-.01,0-.03,0-.03h0c-.74-3.71-2.54-7.25-5.41-10.13-7.73-7.73-20.27-7.73-28,0-6.61,6.61-7.55,16.73-2.85,24.35h-.02s.05.07.12.18c.77,1.23,1.68,2.4,2.75,3.47.56.56,1.16,1.07,1.77,1.55,2.36,2.31,5.76,5.28,10.48,8.76,18.67-4.04,21.67-14.02,22.01-15.48Z"></path>
        <path class="cls-1" d="M122.3,46.97c-3.36-3.79-7.88-5.92-12.56-6.37v-.13s-12.67-2.18-23.52,2.01c-6.54,2.53-16.7,10.35-21.23,14.91-5.95,6-8.24,7.97-13.01,13.91-5.45,6.79-9.05,15.4-10.06,21.6-1.06,6.48-1.12,11.68-1.12,11.68,0,0,15.37-24.27,38.88-26.59,8.73-.86,19-.01,24.27.56,1.1.23,2.22.37,3.35.4.1.01.16.02.16.02v-.02c4.69.11,9.43-1.47,13.21-4.82,7.95-7.06,8.68-19.22,1.63-27.18Z"></path>
      </g>
      <path class="cls-4" d="M40.8,104.59c-.51,5.48,1.1,11.6,5.18,15.91,7.52,7.94,20.05,8.27,27.99.75,4.64-4.4,6.18-10.33,6.07-16.4-.05-5.41-.17-20.21-.18-26.86-.06,0-.12,0-.18.02-23.51,2.32-38.85,26.29-38.88,26.59Z"></path>
    </g>
  </g>
</svg><style>@media (prefers-color-scheme: light) { :root { filter: none; } }
@media (prefers-color-scheme: dark) { :root { filter: none; } }
</style></svg>